<mxfile host="65bd71144e">
    <diagram id="EilpktNF33e6XsfUOeBz" name="ページ1">
        <mxGraphModel dx="1888" dy="476" grid="1" gridSize="10" guides="1" tooltips="1" connect="1" arrows="1" fold="1" page="1" pageScale="1" pageWidth="827" pageHeight="1169" math="0" shadow="0">
            <root>
                <mxCell id="0"/>
                <mxCell id="1" parent="0"/>
                <mxCell id="70" style="edgeStyle=none;html=1;exitX=0.5;exitY=1;exitDx=0;exitDy=0;entryX=0.5;entryY=0;entryDx=0;entryDy=0;fontSize=11;" edge="1" parent="1" source="53" target="58">
                    <mxGeometry relative="1" as="geometry"/>
                </mxCell>
                <mxCell id="57" value="" style="group" vertex="1" connectable="0" parent="1">
                    <mxGeometry x="615" y="160" width="100" height="60" as="geometry"/>
                </mxCell>
                <mxCell id="58" value="アカウント&lt;br&gt;登録画面" style="rounded=0;whiteSpace=wrap;html=1;fontSize=11;" vertex="1" parent="57">
                    <mxGeometry width="100" height="30" as="geometry"/>
                </mxCell>
                <mxCell id="59" value="「登録する」&lt;br&gt;をクリック" style="rounded=0;whiteSpace=wrap;html=1;fontSize=11;" vertex="1" parent="57">
                    <mxGeometry y="30" width="100" height="30" as="geometry"/>
                </mxCell>
                <mxCell id="126" value="" style="edgeStyle=elbowEdgeStyle;elbow=horizontal;endArrow=classic;html=1;fontSize=11;exitX=1;exitY=0.5;exitDx=0;exitDy=0;entryX=1;entryY=0.5;entryDx=0;entryDy=0;" edge="1" parent="57" source="59" target="58">
                    <mxGeometry width="50" height="50" relative="1" as="geometry">
                        <mxPoint x="-35" y="-40" as="sourcePoint"/>
                        <mxPoint x="-60" y="15" as="targetPoint"/>
                        <Array as="points">
                            <mxPoint x="125" y="40"/>
                        </Array>
                    </mxGeometry>
                </mxCell>
                <mxCell id="127" value="失敗" style="edgeLabel;html=1;align=center;verticalAlign=middle;resizable=0;points=[];fontSize=11;" vertex="1" connectable="0" parent="126">
                    <mxGeometry x="0.0041" y="1" relative="1" as="geometry">
                        <mxPoint as="offset"/>
                    </mxGeometry>
                </mxCell>
                <mxCell id="63" value="" style="edgeStyle=elbowEdgeStyle;elbow=vertical;endArrow=classic;html=1;fontSize=11;entryX=0.25;entryY=0;entryDx=0;entryDy=0;" edge="1" parent="1" source="23" target="106">
                    <mxGeometry width="50" height="50" relative="1" as="geometry">
                        <mxPoint x="520" y="310" as="sourcePoint"/>
                        <mxPoint x="504" y="170" as="targetPoint"/>
                        <Array as="points">
                            <mxPoint x="410" y="140"/>
                        </Array>
                    </mxGeometry>
                </mxCell>
                <mxCell id="68" value="" style="edgeStyle=elbowEdgeStyle;elbow=vertical;endArrow=classic;html=1;fontSize=11;exitX=0.5;exitY=1;exitDx=0;exitDy=0;entryX=0.75;entryY=0;entryDx=0;entryDy=0;" edge="1" parent="1" source="51" target="106">
                    <mxGeometry width="50" height="50" relative="1" as="geometry">
                        <mxPoint x="440" y="120" as="sourcePoint"/>
                        <mxPoint x="529" y="162" as="targetPoint"/>
                    </mxGeometry>
                </mxCell>
                <mxCell id="72" value="" style="group" vertex="1" connectable="0" parent="1">
                    <mxGeometry x="329" y="165" width="100" height="60" as="geometry"/>
                </mxCell>
                <mxCell id="73" value="アカウント&lt;br&gt;詳細画面" style="rounded=0;whiteSpace=wrap;html=1;fontSize=11;" vertex="1" parent="72">
                    <mxGeometry width="100" height="30" as="geometry"/>
                </mxCell>
                <mxCell id="74" value="「編集」&lt;br&gt;をクリック" style="rounded=0;whiteSpace=wrap;html=1;fontSize=11;" vertex="1" parent="72">
                    <mxGeometry y="30" width="100" height="30" as="geometry"/>
                </mxCell>
                <mxCell id="75" value="" style="group" vertex="1" connectable="0" parent="1">
                    <mxGeometry x="154" y="165" width="100" height="60" as="geometry"/>
                </mxCell>
                <mxCell id="76" value="課題一覧画面" style="rounded=0;whiteSpace=wrap;html=1;fontSize=11;" vertex="1" parent="75">
                    <mxGeometry width="100" height="30" as="geometry"/>
                </mxCell>
                <mxCell id="77" value="「新規作成」&lt;br&gt;をクリック" style="rounded=0;whiteSpace=wrap;html=1;fontSize=11;" vertex="1" parent="75">
                    <mxGeometry y="30" width="100" height="30" as="geometry"/>
                </mxCell>
                <mxCell id="85" value="" style="group" vertex="1" connectable="0" parent="1">
                    <mxGeometry x="329" y="270" width="100" height="90" as="geometry"/>
                </mxCell>
                <mxCell id="81" value="" style="group" vertex="1" connectable="0" parent="85">
                    <mxGeometry width="100" height="60" as="geometry"/>
                </mxCell>
                <mxCell id="82" value="アカウント&lt;br&gt;編集画面" style="rounded=0;whiteSpace=wrap;html=1;fontSize=11;" vertex="1" parent="81">
                    <mxGeometry width="100" height="30" as="geometry"/>
                </mxCell>
                <mxCell id="83" value="「更新」&lt;br&gt;をクリック" style="rounded=0;whiteSpace=wrap;html=1;fontSize=11;" vertex="1" parent="81">
                    <mxGeometry y="30" width="100" height="30" as="geometry"/>
                </mxCell>
                <mxCell id="141" value="" style="edgeStyle=elbowEdgeStyle;elbow=vertical;endArrow=classic;html=1;fontSize=11;entryX=1;entryY=0.5;entryDx=0;entryDy=0;exitX=1;exitY=0.5;exitDx=0;exitDy=0;" edge="1" parent="81" source="83" target="82">
                    <mxGeometry width="50" height="50" relative="1" as="geometry">
                        <mxPoint x="140" y="45" as="sourcePoint"/>
                        <mxPoint x="160" y="10" as="targetPoint"/>
                        <Array as="points">
                            <mxPoint x="130" y="40"/>
                            <mxPoint x="120" y="30"/>
                        </Array>
                    </mxGeometry>
                </mxCell>
                <mxCell id="142" value="失敗" style="edgeLabel;html=1;align=center;verticalAlign=middle;resizable=0;points=[];fontSize=11;" vertex="1" connectable="0" parent="141">
                    <mxGeometry x="-0.063" y="2" relative="1" as="geometry">
                        <mxPoint as="offset"/>
                    </mxGeometry>
                </mxCell>
                <mxCell id="84" value="「戻る」&lt;br&gt;をクリック" style="rounded=0;whiteSpace=wrap;html=1;fontSize=11;" vertex="1" parent="85">
                    <mxGeometry y="60" width="100" height="30" as="geometry"/>
                </mxCell>
                <mxCell id="86" value="「詳細」&lt;br&gt;をクリック" style="rounded=0;whiteSpace=wrap;html=1;fontSize=11;" vertex="1" parent="1">
                    <mxGeometry x="154" y="225" width="100" height="30" as="geometry"/>
                </mxCell>
                <mxCell id="87" value="「編集」&lt;br&gt;をクリック" style="rounded=0;whiteSpace=wrap;html=1;fontSize=11;" vertex="1" parent="1">
                    <mxGeometry x="154" y="255" width="100" height="30" as="geometry"/>
                </mxCell>
                <mxCell id="88" value="「削除」&lt;br&gt;をクリック" style="rounded=0;whiteSpace=wrap;html=1;fontSize=11;" vertex="1" parent="1">
                    <mxGeometry x="154" y="285" width="100" height="30" as="geometry"/>
                </mxCell>
                <mxCell id="90" value="" style="group" vertex="1" connectable="0" parent="1">
                    <mxGeometry x="323.5" y="413" width="100" height="60" as="geometry"/>
                </mxCell>
                <mxCell id="91" value="改善案一覧画面" style="rounded=0;whiteSpace=wrap;html=1;fontSize=11;" vertex="1" parent="90">
                    <mxGeometry width="100" height="30" as="geometry"/>
                </mxCell>
                <mxCell id="92" value="「新規作成」&lt;br&gt;をクリック" style="rounded=0;whiteSpace=wrap;html=1;fontSize=11;" vertex="1" parent="90">
                    <mxGeometry y="30" width="100" height="30" as="geometry"/>
                </mxCell>
                <mxCell id="94" value="「編集」&lt;br&gt;をクリック" style="rounded=0;whiteSpace=wrap;html=1;fontSize=11;" vertex="1" parent="1">
                    <mxGeometry x="323.5" y="473" width="100" height="30" as="geometry"/>
                </mxCell>
                <mxCell id="95" value="「削除」&lt;br&gt;をクリック" style="rounded=0;whiteSpace=wrap;html=1;fontSize=11;" vertex="1" parent="1">
                    <mxGeometry x="323.5" y="503" width="100" height="30" as="geometry"/>
                </mxCell>
                <mxCell id="103" value="" style="edgeStyle=elbowEdgeStyle;elbow=vertical;endArrow=classic;html=1;fontSize=11;exitX=0.5;exitY=1;exitDx=0;exitDy=0;entryX=0.5;entryY=0;entryDx=0;entryDy=0;" edge="1" parent="1" source="54" target="76">
                    <mxGeometry width="50" height="50" relative="1" as="geometry">
                        <mxPoint x="775" y="124" as="sourcePoint"/>
                        <mxPoint x="220" y="179" as="targetPoint"/>
                        <Array as="points">
                            <mxPoint x="500" y="124"/>
                        </Array>
                    </mxGeometry>
                </mxCell>
                <mxCell id="105" value="" style="group" vertex="1" connectable="0" parent="1">
                    <mxGeometry x="470" y="165" width="100" height="60" as="geometry"/>
                </mxCell>
                <mxCell id="106" value="ログイン画面" style="rounded=0;whiteSpace=wrap;html=1;fontSize=11;" vertex="1" parent="105">
                    <mxGeometry width="100" height="30" as="geometry"/>
                </mxCell>
                <mxCell id="107" value="「ログイン」&lt;br&gt;をクリック" style="rounded=0;whiteSpace=wrap;html=1;fontSize=11;" vertex="1" parent="105">
                    <mxGeometry y="30" width="100" height="30" as="geometry"/>
                </mxCell>
                <mxCell id="119" value="" style="edgeStyle=elbowEdgeStyle;elbow=vertical;endArrow=classic;html=1;fontSize=11;entryX=1;entryY=0.5;entryDx=0;entryDy=0;exitX=1;exitY=0.5;exitDx=0;exitDy=0;" edge="1" parent="105" source="107" target="106">
                    <mxGeometry width="50" height="50" relative="1" as="geometry">
                        <mxPoint x="-30" y="-45" as="sourcePoint"/>
                        <mxPoint x="35" y="10" as="targetPoint"/>
                        <Array as="points">
                            <mxPoint x="120" y="30"/>
                        </Array>
                    </mxGeometry>
                </mxCell>
                <mxCell id="120" value="失敗" style="edgeLabel;html=1;align=center;verticalAlign=middle;resizable=0;points=[];fontSize=11;" vertex="1" connectable="0" parent="119">
                    <mxGeometry x="0.019" y="-1" relative="1" as="geometry">
                        <mxPoint as="offset"/>
                    </mxGeometry>
                </mxCell>
                <mxCell id="135" value="" style="edgeStyle=segmentEdgeStyle;endArrow=classic;html=1;fontSize=11;entryX=0;entryY=0.5;entryDx=0;entryDy=0;exitX=0.5;exitY=1;exitDx=0;exitDy=0;" edge="1" parent="1" source="59" target="73">
                    <mxGeometry width="50" height="50" relative="1" as="geometry">
                        <mxPoint x="400" y="310" as="sourcePoint"/>
                        <mxPoint x="450" y="260" as="targetPoint"/>
                        <Array as="points">
                            <mxPoint x="665" y="250"/>
                            <mxPoint x="300" y="250"/>
                            <mxPoint x="300" y="180"/>
                        </Array>
                    </mxGeometry>
                </mxCell>
                <mxCell id="136" value="成功" style="edgeLabel;html=1;align=center;verticalAlign=middle;resizable=0;points=[];fontSize=11;" vertex="1" connectable="0" parent="135">
                    <mxGeometry x="-0.7872" y="2" relative="1" as="geometry">
                        <mxPoint as="offset"/>
                    </mxGeometry>
                </mxCell>
                <mxCell id="137" value="" style="edgeStyle=elbowEdgeStyle;elbow=vertical;endArrow=classic;html=1;fontSize=11;entryX=0.5;entryY=0;entryDx=0;entryDy=0;exitX=0.5;exitY=1;exitDx=0;exitDy=0;" edge="1" parent="1" source="22" target="73">
                    <mxGeometry width="50" height="50" relative="1" as="geometry">
                        <mxPoint x="440" y="120" as="sourcePoint"/>
                        <mxPoint x="505" y="175" as="targetPoint"/>
                        <Array as="points">
                            <mxPoint x="320" y="150"/>
                        </Array>
                    </mxGeometry>
                </mxCell>
                <mxCell id="138" style="edgeStyle=none;html=1;exitX=0.5;exitY=1;exitDx=0;exitDy=0;entryX=0.5;entryY=0;entryDx=0;entryDy=0;fontSize=11;" edge="1" parent="1" source="74" target="82">
                    <mxGeometry relative="1" as="geometry">
                        <mxPoint x="389" y="230" as="sourcePoint"/>
                        <mxPoint x="389" y="280" as="targetPoint"/>
                    </mxGeometry>
                </mxCell>
                <mxCell id="140" value="" style="edgeStyle=elbowEdgeStyle;elbow=vertical;endArrow=classic;html=1;fontSize=11;entryX=0;entryY=0.75;entryDx=0;entryDy=0;exitX=0;exitY=0.5;exitDx=0;exitDy=0;" edge="1" parent="1" source="84" target="73">
                    <mxGeometry width="50" height="50" relative="1" as="geometry">
                        <mxPoint x="379" y="120" as="sourcePoint"/>
                        <mxPoint x="389" y="175" as="targetPoint"/>
                        <Array as="points">
                            <mxPoint x="309" y="266"/>
                        </Array>
                    </mxGeometry>
                </mxCell>
                <mxCell id="143" value="" style="edgeStyle=elbowEdgeStyle;elbow=vertical;endArrow=classic;html=1;fontSize=11;entryX=0.25;entryY=0;entryDx=0;entryDy=0;exitX=0.25;exitY=1;exitDx=0;exitDy=0;" edge="1" parent="1" source="19" target="76">
                    <mxGeometry width="50" height="50" relative="1" as="geometry">
                        <mxPoint x="360" y="120" as="sourcePoint"/>
                        <mxPoint x="370" y="175" as="targetPoint"/>
                    </mxGeometry>
                </mxCell>
                <mxCell id="155" value="" style="group" vertex="1" connectable="0" parent="1">
                    <mxGeometry x="163" y="460" width="100" height="90" as="geometry"/>
                </mxCell>
                <mxCell id="151" value="" style="group" vertex="1" connectable="0" parent="155">
                    <mxGeometry x="-9" width="100" height="60" as="geometry"/>
                </mxCell>
                <mxCell id="152" value="課題編集画面" style="rounded=0;whiteSpace=wrap;html=1;fontSize=11;" vertex="1" parent="151">
                    <mxGeometry width="100" height="30" as="geometry"/>
                </mxCell>
                <mxCell id="153" value="「編集」&lt;br&gt;をクリック" style="rounded=0;whiteSpace=wrap;html=1;fontSize=11;" vertex="1" parent="151">
                    <mxGeometry y="30" width="100" height="30" as="geometry"/>
                </mxCell>
                <mxCell id="157" value="" style="group" vertex="1" connectable="0" parent="1">
                    <mxGeometry x="154" y="350" width="100" height="110" as="geometry"/>
                </mxCell>
                <mxCell id="145" value="" style="group" vertex="1" connectable="0" parent="157">
                    <mxGeometry width="100" height="110" as="geometry"/>
                </mxCell>
                <mxCell id="146" value="課題登録&lt;br&gt;画面" style="rounded=0;whiteSpace=wrap;html=1;fontSize=11;" vertex="1" parent="145">
                    <mxGeometry width="100" height="30" as="geometry"/>
                </mxCell>
                <mxCell id="147" value="「登録」&lt;br&gt;をクリック" style="rounded=0;whiteSpace=wrap;html=1;fontSize=11;" vertex="1" parent="145">
                    <mxGeometry y="30" width="100" height="30" as="geometry"/>
                </mxCell>
                <mxCell id="179" value="" style="group" vertex="1" connectable="0" parent="145">
                    <mxGeometry x="-185" y="271" width="100" height="60" as="geometry"/>
                </mxCell>
                <mxCell id="180" value="ユーザー登録&lt;br&gt;画面" style="rounded=0;whiteSpace=wrap;html=1;fontSize=11;" vertex="1" parent="179">
                    <mxGeometry width="100" height="30" as="geometry"/>
                </mxCell>
                <mxCell id="181" value="「登録」&lt;br&gt;をクリック" style="rounded=0;whiteSpace=wrap;html=1;fontSize=11;" vertex="1" parent="179">
                    <mxGeometry y="30" width="100" height="30" as="geometry"/>
                </mxCell>
                <mxCell id="158" value="" style="group" vertex="1" connectable="0" parent="1">
                    <mxGeometry x="497" y="533" width="100" height="90" as="geometry"/>
                </mxCell>
                <mxCell id="159" value="" style="group" vertex="1" connectable="0" parent="158">
                    <mxGeometry width="100" height="60" as="geometry"/>
                </mxCell>
                <mxCell id="160" value="改善案&lt;br&gt;編集画面" style="rounded=0;whiteSpace=wrap;html=1;fontSize=11;" vertex="1" parent="159">
                    <mxGeometry width="100" height="30" as="geometry"/>
                </mxCell>
                <mxCell id="161" value="「編集」&lt;br&gt;をクリック" style="rounded=0;whiteSpace=wrap;html=1;fontSize=11;" vertex="1" parent="159">
                    <mxGeometry y="30" width="100" height="30" as="geometry"/>
                </mxCell>
                <mxCell id="251" value="失敗" style="edgeStyle=segmentEdgeStyle;endArrow=classic;html=1;fontSize=11;exitX=1;exitY=0.5;exitDx=0;exitDy=0;entryX=1;entryY=0.5;entryDx=0;entryDy=0;" edge="1" parent="159" source="161" target="160">
                    <mxGeometry width="50" height="50" relative="1" as="geometry">
                        <mxPoint x="-147" y="-40" as="sourcePoint"/>
                        <mxPoint x="-97" y="-90" as="targetPoint"/>
                        <Array as="points">
                            <mxPoint x="123" y="45"/>
                            <mxPoint x="123" y="15"/>
                        </Array>
                    </mxGeometry>
                </mxCell>
                <mxCell id="163" value="" style="group" vertex="1" connectable="0" parent="1">
                    <mxGeometry x="497" y="413" width="100" height="90" as="geometry"/>
                </mxCell>
                <mxCell id="164" value="" style="group" vertex="1" connectable="0" parent="163">
                    <mxGeometry width="100" height="60" as="geometry"/>
                </mxCell>
                <mxCell id="165" value="改善案&lt;br&gt;登録画面" style="rounded=0;whiteSpace=wrap;html=1;fontSize=11;" vertex="1" parent="164">
                    <mxGeometry width="100" height="30" as="geometry"/>
                </mxCell>
                <mxCell id="166" value="「登録」&lt;br&gt;をクリック" style="rounded=0;whiteSpace=wrap;html=1;fontSize=11;" vertex="1" parent="164">
                    <mxGeometry y="30" width="100" height="30" as="geometry"/>
                </mxCell>
                <mxCell id="246" value="" style="edgeStyle=segmentEdgeStyle;endArrow=classic;html=1;fontSize=11;exitX=1;exitY=0.5;exitDx=0;exitDy=0;entryX=1;entryY=0.25;entryDx=0;entryDy=0;" edge="1" parent="164" source="166" target="165">
                    <mxGeometry width="50" height="50" relative="1" as="geometry">
                        <mxPoint x="-147" y="70" as="sourcePoint"/>
                        <mxPoint x="-97" y="20" as="targetPoint"/>
                        <Array as="points">
                            <mxPoint x="123" y="45"/>
                            <mxPoint x="123" y="8"/>
                        </Array>
                    </mxGeometry>
                </mxCell>
                <mxCell id="247" value="失敗" style="edgeLabel;html=1;align=center;verticalAlign=middle;resizable=0;points=[];fontSize=11;" vertex="1" connectable="0" parent="246">
                    <mxGeometry x="0.0179" relative="1" as="geometry">
                        <mxPoint as="offset"/>
                    </mxGeometry>
                </mxCell>
                <mxCell id="170" value="" style="edgeStyle=elbowEdgeStyle;elbow=vertical;endArrow=classic;html=1;fontSize=11;entryX=0;entryY=0.5;entryDx=0;entryDy=0;exitX=0;exitY=0.5;exitDx=0;exitDy=0;" edge="1" parent="1" source="77" target="146">
                    <mxGeometry width="50" height="50" relative="1" as="geometry">
                        <mxPoint x="183.5" y="130" as="sourcePoint"/>
                        <mxPoint x="199" y="185" as="targetPoint"/>
                        <Array as="points">
                            <mxPoint x="141" y="288"/>
                        </Array>
                    </mxGeometry>
                </mxCell>
                <mxCell id="171" value="" style="edgeStyle=elbowEdgeStyle;elbow=vertical;endArrow=classic;html=1;fontSize=11;entryX=0;entryY=0.5;entryDx=0;entryDy=0;exitX=0;exitY=0.5;exitDx=0;exitDy=0;" edge="1" parent="1" source="87" target="152">
                    <mxGeometry width="50" height="50" relative="1" as="geometry">
                        <mxPoint x="193.5" y="140" as="sourcePoint"/>
                        <mxPoint x="209" y="195" as="targetPoint"/>
                        <Array as="points">
                            <mxPoint x="131" y="340"/>
                        </Array>
                    </mxGeometry>
                </mxCell>
                <mxCell id="172" value="" style="edgeStyle=elbowEdgeStyle;elbow=vertical;endArrow=classic;html=1;fontSize=11;entryX=0;entryY=0.5;entryDx=0;entryDy=0;exitX=0;exitY=0.5;exitDx=0;exitDy=0;" edge="1" parent="1" source="88" target="76">
                    <mxGeometry width="50" height="50" relative="1" as="geometry">
                        <mxPoint x="196.25" y="287.5" as="sourcePoint"/>
                        <mxPoint x="211.75" y="342.5" as="targetPoint"/>
                        <Array as="points">
                            <mxPoint x="121" y="240"/>
                        </Array>
                    </mxGeometry>
                </mxCell>
                <mxCell id="175" value="" style="edgeStyle=elbowEdgeStyle;elbow=vertical;endArrow=classic;html=1;fontSize=11;entryX=1;entryY=0.75;entryDx=0;entryDy=0;exitX=1;exitY=0.5;exitDx=0;exitDy=0;" edge="1" parent="1" source="153" target="76">
                    <mxGeometry width="50" height="50" relative="1" as="geometry">
                        <mxPoint x="254" y="510" as="sourcePoint"/>
                        <mxPoint x="281" y="210" as="targetPoint"/>
                        <Array as="points">
                            <mxPoint x="271" y="360"/>
                            <mxPoint x="281" y="350"/>
                        </Array>
                    </mxGeometry>
                </mxCell>
                <mxCell id="243" value="成功" style="edgeLabel;html=1;align=center;verticalAlign=middle;resizable=0;points=[];fontSize=11;" vertex="1" connectable="0" parent="175">
                    <mxGeometry x="-0.7184" y="-1" relative="1" as="geometry">
                        <mxPoint as="offset"/>
                    </mxGeometry>
                </mxCell>
                <mxCell id="176" value="" style="edgeStyle=elbowEdgeStyle;elbow=vertical;endArrow=classic;html=1;fontSize=11;exitX=1;exitY=0.5;exitDx=0;exitDy=0;entryX=1;entryY=0.5;entryDx=0;entryDy=0;" edge="1" parent="1" source="147" target="76">
                    <mxGeometry width="50" height="50" relative="1" as="geometry">
                        <mxPoint x="264" y="525" as="sourcePoint"/>
                        <mxPoint x="261" y="180" as="targetPoint"/>
                        <Array as="points">
                            <mxPoint x="281" y="370"/>
                            <mxPoint x="291" y="360"/>
                        </Array>
                    </mxGeometry>
                </mxCell>
                <mxCell id="242" value="成功" style="edgeLabel;html=1;align=center;verticalAlign=middle;resizable=0;points=[];fontSize=11;" vertex="1" connectable="0" parent="176">
                    <mxGeometry x="-0.4622" y="-1" relative="1" as="geometry">
                        <mxPoint as="offset"/>
                    </mxGeometry>
                </mxCell>
                <mxCell id="178" value="" style="edgeStyle=segmentEdgeStyle;endArrow=classic;html=1;fontSize=11;exitX=1;exitY=0.5;exitDx=0;exitDy=0;entryX=0;entryY=0.5;entryDx=0;entryDy=0;" edge="1" parent="1" source="86" target="91">
                    <mxGeometry width="50" height="50" relative="1" as="geometry">
                        <mxPoint x="370" y="360" as="sourcePoint"/>
                        <mxPoint x="420" y="310" as="targetPoint"/>
                        <Array as="points">
                            <mxPoint x="290" y="240"/>
                            <mxPoint x="290" y="428"/>
                        </Array>
                    </mxGeometry>
                </mxCell>
                <mxCell id="183" value="" style="edgeStyle=elbowEdgeStyle;elbow=vertical;endArrow=classic;html=1;fontSize=11;exitX=1;exitY=0.5;exitDx=0;exitDy=0;entryX=0;entryY=0.5;entryDx=0;entryDy=0;" edge="1" parent="1" source="92" target="165">
                    <mxGeometry width="50" height="50" relative="1" as="geometry">
                        <mxPoint x="540" y="313" as="sourcePoint"/>
                        <mxPoint x="490" y="433" as="targetPoint"/>
                    </mxGeometry>
                </mxCell>
                <mxCell id="185" value="" style="edgeStyle=segmentEdgeStyle;endArrow=classic;html=1;fontSize=11;exitX=1;exitY=0.5;exitDx=0;exitDy=0;entryX=0;entryY=0.5;entryDx=0;entryDy=0;" edge="1" parent="1" source="94" target="160">
                    <mxGeometry width="50" height="50" relative="1" as="geometry">
                        <mxPoint x="380" y="463" as="sourcePoint"/>
                        <mxPoint x="430" y="413" as="targetPoint"/>
                        <Array as="points">
                            <mxPoint x="450" y="488"/>
                            <mxPoint x="450" y="548"/>
                        </Array>
                    </mxGeometry>
                </mxCell>
                <mxCell id="190" value="" style="edgeStyle=elbowEdgeStyle;elbow=vertical;endArrow=classic;html=1;fontSize=11;entryX=0;entryY=0.75;entryDx=0;entryDy=0;exitX=0;exitY=0.5;exitDx=0;exitDy=0;" edge="1" parent="1" source="95" target="91">
                    <mxGeometry width="50" height="50" relative="1" as="geometry">
                        <mxPoint x="263" y="493" as="sourcePoint"/>
                        <mxPoint x="313" y="443" as="targetPoint"/>
                        <Array as="points">
                            <mxPoint x="309" y="477"/>
                        </Array>
                    </mxGeometry>
                </mxCell>
                <mxCell id="193" value="" style="edgeStyle=elbowEdgeStyle;elbow=horizontal;endArrow=classic;html=1;fontSize=11;exitX=0;exitY=0.5;exitDx=0;exitDy=0;entryX=1;entryY=0.75;entryDx=0;entryDy=0;" edge="1" parent="1" source="161" target="91">
                    <mxGeometry width="50" height="50" relative="1" as="geometry">
                        <mxPoint x="380" y="463" as="sourcePoint"/>
                        <mxPoint x="430" y="413" as="targetPoint"/>
                        <Array as="points">
                            <mxPoint x="470" y="513"/>
                        </Array>
                    </mxGeometry>
                </mxCell>
                <mxCell id="245" value="成功" style="edgeLabel;html=1;align=center;verticalAlign=middle;resizable=0;points=[];fontSize=11;" vertex="1" connectable="0" parent="193">
                    <mxGeometry x="-0.301" y="1" relative="1" as="geometry">
                        <mxPoint as="offset"/>
                    </mxGeometry>
                </mxCell>
                <mxCell id="196" value="" style="edgeStyle=elbowEdgeStyle;elbow=horizontal;endArrow=classic;html=1;fontSize=11;entryX=1;entryY=0.25;entryDx=0;entryDy=0;exitX=0;exitY=0.25;exitDx=0;exitDy=0;" edge="1" parent="1" source="166" target="91">
                    <mxGeometry width="50" height="50" relative="1" as="geometry">
                        <mxPoint x="380" y="513" as="sourcePoint"/>
                        <mxPoint x="430" y="463" as="targetPoint"/>
                        <Array as="points">
                            <mxPoint x="450" y="443"/>
                        </Array>
                    </mxGeometry>
                </mxCell>
                <mxCell id="244" value="成功" style="edgeLabel;html=1;align=center;verticalAlign=middle;resizable=0;points=[];fontSize=11;" vertex="1" connectable="0" parent="196">
                    <mxGeometry x="-0.8664" y="-1" relative="1" as="geometry">
                        <mxPoint as="offset"/>
                    </mxGeometry>
                </mxCell>
                <mxCell id="200" value="" style="group" vertex="1" connectable="0" parent="1">
                    <mxGeometry x="-31" y="528" width="100" height="60" as="geometry"/>
                </mxCell>
                <mxCell id="201" value="ユーザー編集画面" style="rounded=0;whiteSpace=wrap;html=1;fontSize=11;" vertex="1" parent="200">
                    <mxGeometry width="100" height="30" as="geometry"/>
                </mxCell>
                <mxCell id="202" value="「編集」&lt;br&gt;をクリック" style="rounded=0;whiteSpace=wrap;html=1;fontSize=11;" vertex="1" parent="200">
                    <mxGeometry y="30" width="100" height="30" as="geometry"/>
                </mxCell>
                <mxCell id="206" value="" style="group" vertex="1" connectable="0" parent="1">
                    <mxGeometry x="-225" y="620" width="100" height="60" as="geometry"/>
                </mxCell>
                <mxCell id="207" value="チーム登録&lt;br&gt;画面" style="rounded=0;whiteSpace=wrap;html=1;fontSize=11;" vertex="1" parent="206">
                    <mxGeometry width="100" height="30" as="geometry"/>
                </mxCell>
                <mxCell id="208" value="「登録」&lt;br&gt;をクリック" style="rounded=0;whiteSpace=wrap;html=1;fontSize=11;" vertex="1" parent="206">
                    <mxGeometry y="30" width="100" height="30" as="geometry"/>
                </mxCell>
                <mxCell id="209" value="" style="group" vertex="1" connectable="0" parent="1">
                    <mxGeometry x="-227" y="530" width="100" height="60" as="geometry"/>
                </mxCell>
                <mxCell id="210" value="チーム編集画面" style="rounded=0;whiteSpace=wrap;html=1;fontSize=11;" vertex="1" parent="209">
                    <mxGeometry width="100" height="30" as="geometry"/>
                </mxCell>
                <mxCell id="211" value="「編集」&lt;br&gt;をクリック" style="rounded=0;whiteSpace=wrap;html=1;fontSize=11;" vertex="1" parent="209">
                    <mxGeometry y="30" width="100" height="30" as="geometry"/>
                </mxCell>
                <mxCell id="218" value="" style="edgeStyle=elbowEdgeStyle;elbow=vertical;endArrow=classic;html=1;fontSize=11;exitX=0.5;exitY=1;exitDx=0;exitDy=0;entryX=0.5;entryY=0;entryDx=0;entryDy=0;" edge="1" parent="1" source="216" target="106">
                    <mxGeometry width="50" height="50" relative="1" as="geometry">
                        <mxPoint x="580" y="120" as="sourcePoint"/>
                        <mxPoint x="555" y="175" as="targetPoint"/>
                    </mxGeometry>
                </mxCell>
                <mxCell id="219" value="" style="group" vertex="1" connectable="0" parent="1">
                    <mxGeometry x="50" y="30" width="380" height="80" as="geometry"/>
                </mxCell>
                <mxCell id="27" value="" style="group" vertex="1" connectable="0" parent="219">
                    <mxGeometry width="380" height="80" as="geometry"/>
                </mxCell>
                <mxCell id="222" value="" style="group" vertex="1" connectable="0" parent="27">
                    <mxGeometry width="310" height="80" as="geometry"/>
                </mxCell>
                <mxCell id="18" value="&lt;span style=&quot;font-size: 11px ; font-weight: 700&quot;&gt;グローバルナビゲーション(ログイン中)&lt;/span&gt;" style="rounded=0;whiteSpace=wrap;html=1;" vertex="1" parent="222">
                    <mxGeometry width="310" height="30" as="geometry"/>
                </mxCell>
                <mxCell id="19" value="&lt;font style=&quot;font-size: 11px&quot;&gt;「課題一覧」をクリック&lt;/font&gt;" style="rounded=0;whiteSpace=wrap;html=1;" vertex="1" parent="222">
                    <mxGeometry x="80" y="30" width="70" height="50" as="geometry"/>
                </mxCell>
                <mxCell id="22" value="&lt;font style=&quot;font-size: 11px&quot;&gt;「マイページ」をクリック&lt;/font&gt;" style="rounded=0;whiteSpace=wrap;html=1;" vertex="1" parent="222">
                    <mxGeometry x="150" y="30" width="80" height="50" as="geometry"/>
                </mxCell>
                <mxCell id="23" value="&lt;font style=&quot;font-size: 11px&quot;&gt;「ログアウト」をクリック&lt;/font&gt;" style="rounded=0;whiteSpace=wrap;html=1;" vertex="1" parent="222">
                    <mxGeometry x="230" y="30" width="80" height="50" as="geometry"/>
                </mxCell>
                <mxCell id="26" value="&lt;font style=&quot;font-size: 11px&quot;&gt;「管理者画面」をクリック&lt;/font&gt;" style="rounded=0;whiteSpace=wrap;html=1;" vertex="1" parent="222">
                    <mxGeometry y="30" width="80" height="50" as="geometry"/>
                </mxCell>
                <mxCell id="220" value="" style="group" vertex="1" connectable="0" parent="1">
                    <mxGeometry x="460" y="30" width="370" height="80" as="geometry"/>
                </mxCell>
                <mxCell id="25" value="&lt;span style=&quot;font-size: 11px ; font-weight: 700&quot;&gt;グローバルナビゲーション(ログアウト中)&lt;/span&gt;" style="rounded=0;whiteSpace=wrap;html=1;" vertex="1" parent="220">
                    <mxGeometry width="370" height="30" as="geometry"/>
                </mxCell>
                <mxCell id="51" value="「ログイン」&lt;br&gt;をクリック" style="rounded=0;whiteSpace=wrap;html=1;fontSize=11;" vertex="1" parent="220">
                    <mxGeometry x="70" y="30" width="80" height="50" as="geometry"/>
                </mxCell>
                <mxCell id="53" value="「サインイン」&lt;br&gt;をクリック" style="rounded=0;whiteSpace=wrap;html=1;fontSize=11;" vertex="1" parent="220">
                    <mxGeometry x="150" y="30" width="110" height="50" as="geometry"/>
                </mxCell>
                <mxCell id="54" value="「ゲストログイン」&lt;br&gt;をクリック" style="rounded=0;whiteSpace=wrap;html=1;fontSize=11;" vertex="1" parent="220">
                    <mxGeometry x="260" y="30" width="110" height="50" as="geometry"/>
                </mxCell>
                <mxCell id="216" value="「About」&lt;br&gt;をクリック" style="rounded=0;whiteSpace=wrap;html=1;fontSize=11;" vertex="1" parent="220">
                    <mxGeometry y="30" width="70" height="50" as="geometry"/>
                </mxCell>
                <mxCell id="237" value="" style="edgeStyle=segmentEdgeStyle;endArrow=classic;html=1;fontSize=11;exitX=0.5;exitY=1;exitDx=0;exitDy=0;entryX=1;entryY=0.5;entryDx=0;entryDy=0;" edge="1" parent="1" source="107" target="73">
                    <mxGeometry width="50" height="50" relative="1" as="geometry">
                        <mxPoint x="300" y="220" as="sourcePoint"/>
                        <mxPoint x="350" y="170" as="targetPoint"/>
                        <Array as="points">
                            <mxPoint x="520" y="240"/>
                            <mxPoint x="460" y="240"/>
                            <mxPoint x="460" y="180"/>
                        </Array>
                    </mxGeometry>
                </mxCell>
                <mxCell id="238" value="成功" style="edgeLabel;html=1;align=center;verticalAlign=middle;resizable=0;points=[];fontSize=11;" vertex="1" connectable="0" parent="237">
                    <mxGeometry x="-0.6436" y="2" relative="1" as="geometry">
                        <mxPoint as="offset"/>
                    </mxGeometry>
                </mxCell>
                <mxCell id="250" style="edgeStyle=none;html=1;exitX=1;exitY=0.75;exitDx=0;exitDy=0;fontSize=11;" edge="1" parent="1" source="160">
                    <mxGeometry relative="1" as="geometry">
                        <mxPoint x="597" y="556" as="targetPoint"/>
                    </mxGeometry>
                </mxCell>
                <mxCell id="260" value="" style="group" vertex="1" connectable="0" parent="1">
                    <mxGeometry x="-31" y="350" width="100" height="105" as="geometry"/>
                </mxCell>
                <mxCell id="279" value="" style="group" vertex="1" connectable="0" parent="260">
                    <mxGeometry x="-10" y="-30" width="120" height="120" as="geometry"/>
                </mxCell>
                <mxCell id="112" value="" style="group" vertex="1" connectable="0" parent="279">
                    <mxGeometry width="120" height="60" as="geometry"/>
                </mxCell>
                <mxCell id="113" value="ユーザー&lt;br&gt;一覧画面" style="rounded=0;whiteSpace=wrap;html=1;fontSize=11;" vertex="1" parent="112">
                    <mxGeometry width="120" height="30" as="geometry"/>
                </mxCell>
                <mxCell id="258" value="「詳細」&lt;br&gt;をクリック" style="rounded=0;whiteSpace=wrap;html=1;fontSize=11;" vertex="1" parent="112">
                    <mxGeometry y="30" width="120" height="30" as="geometry"/>
                </mxCell>
                <mxCell id="114" value="「編集」&lt;br&gt;をクリック" style="rounded=0;whiteSpace=wrap;html=1;fontSize=11;" vertex="1" parent="279">
                    <mxGeometry y="60" width="120" height="30" as="geometry"/>
                </mxCell>
                <mxCell id="115" value="「削除」&lt;br&gt;をクリック" style="rounded=0;whiteSpace=wrap;html=1;fontSize=11;" vertex="1" parent="279">
                    <mxGeometry y="90" width="120" height="30" as="geometry"/>
                </mxCell>
                <mxCell id="293" value="" style="edgeStyle=segmentEdgeStyle;endArrow=classic;html=1;fontSize=11;exitX=0;exitY=0.5;exitDx=0;exitDy=0;entryX=0;entryY=0.5;entryDx=0;entryDy=0;" edge="1" parent="279" source="115" target="113">
                    <mxGeometry width="50" height="50" relative="1" as="geometry">
                        <mxPoint x="181" y="200" as="sourcePoint"/>
                        <mxPoint x="231" y="150" as="targetPoint"/>
                        <Array as="points">
                            <mxPoint x="-29" y="105"/>
                            <mxPoint x="-29" y="15"/>
                        </Array>
                    </mxGeometry>
                </mxCell>
                <mxCell id="265" value="チーム&lt;br&gt;詳細画面" style="rounded=0;whiteSpace=wrap;html=1;fontSize=11;" vertex="1" parent="1">
                    <mxGeometry x="-227" y="473" width="100" height="30" as="geometry"/>
                </mxCell>
                <mxCell id="273" value="課題詳細画面" style="rounded=0;whiteSpace=wrap;html=1;fontSize=11;" vertex="1" parent="1">
                    <mxGeometry x="323.5" y="383" width="100" height="30" as="geometry"/>
                </mxCell>
                <mxCell id="275" value="" style="edgeStyle=segmentEdgeStyle;endArrow=classic;html=1;fontSize=11;exitX=1;exitY=0.75;exitDx=0;exitDy=0;entryX=0;entryY=0.5;entryDx=0;entryDy=0;" edge="1" parent="1" source="86" target="273">
                    <mxGeometry width="50" height="50" relative="1" as="geometry">
                        <mxPoint x="240" y="410" as="sourcePoint"/>
                        <mxPoint x="290" y="360" as="targetPoint"/>
                        <Array as="points">
                            <mxPoint x="300" y="248"/>
                            <mxPoint x="300" y="398"/>
                        </Array>
                    </mxGeometry>
                </mxCell>
                <mxCell id="277" value="「詳細」&lt;br&gt;をクリック" style="rounded=0;whiteSpace=wrap;html=1;fontSize=11;" vertex="1" parent="1">
                    <mxGeometry x="323.5" y="533" width="100" height="30" as="geometry"/>
                </mxCell>
                <mxCell id="278" value="改善案&lt;br&gt;詳細画面" style="rounded=0;whiteSpace=wrap;html=1;fontSize=11;" vertex="1" parent="1">
                    <mxGeometry x="323.5" y="600" width="100" height="30" as="geometry"/>
                </mxCell>
                <mxCell id="261" value="ユーザー&lt;br&gt;詳細画面" style="rounded=0;whiteSpace=wrap;html=1;fontSize=11;" vertex="1" parent="1">
                    <mxGeometry x="-31" y="473" width="100" height="30" as="geometry"/>
                </mxCell>
                <mxCell id="280" value="" style="group" vertex="1" connectable="0" parent="1">
                    <mxGeometry x="-142" y="165" width="120" height="120" as="geometry"/>
                </mxCell>
                <mxCell id="259" value="「チーム一覧」&lt;br&gt;をクリック" style="rounded=0;whiteSpace=wrap;html=1;fontSize=11;" vertex="1" parent="280">
                    <mxGeometry y="60" width="120" height="30" as="geometry"/>
                </mxCell>
                <mxCell id="116" value="「ユーザー登録」&lt;br&gt;をクリック" style="rounded=0;whiteSpace=wrap;html=1;fontSize=11;" vertex="1" parent="280">
                    <mxGeometry y="30" width="120" height="30" as="geometry"/>
                </mxCell>
                <mxCell id="268" value="「ユーザー一覧」&lt;br&gt;をクリック" style="rounded=0;whiteSpace=wrap;html=1;fontSize=11;" vertex="1" parent="280">
                    <mxGeometry width="120" height="30" as="geometry"/>
                </mxCell>
                <mxCell id="269" value="「チーム登録」&lt;br&gt;をクリック" style="rounded=0;whiteSpace=wrap;html=1;fontSize=11;" vertex="1" parent="280">
                    <mxGeometry y="90" width="120" height="30" as="geometry"/>
                </mxCell>
                <mxCell id="283" value="" style="edgeStyle=segmentEdgeStyle;endArrow=classic;html=1;fontSize=11;exitX=1;exitY=0.5;exitDx=0;exitDy=0;entryX=0.5;entryY=0;entryDx=0;entryDy=0;" edge="1" parent="1" source="268" target="113">
                    <mxGeometry width="50" height="50" relative="1" as="geometry">
                        <mxPoint x="140" y="330" as="sourcePoint"/>
                        <mxPoint x="190" y="280" as="targetPoint"/>
                    </mxGeometry>
                </mxCell>
                <mxCell id="284" value="" style="edgeStyle=segmentEdgeStyle;endArrow=classic;html=1;fontSize=11;exitX=0;exitY=0.5;exitDx=0;exitDy=0;entryX=0.5;entryY=0;entryDx=0;entryDy=0;" edge="1" parent="1" source="259" target="272">
                    <mxGeometry width="50" height="50" relative="1" as="geometry">
                        <mxPoint x="140" y="330" as="sourcePoint"/>
                        <mxPoint x="190" y="280" as="targetPoint"/>
                    </mxGeometry>
                </mxCell>
                <mxCell id="287" value="" style="edgeStyle=segmentEdgeStyle;endArrow=classic;html=1;fontSize=11;exitX=0;exitY=0.5;exitDx=0;exitDy=0;entryX=0;entryY=0.5;entryDx=0;entryDy=0;" edge="1" parent="1" source="258" target="261">
                    <mxGeometry width="50" height="50" relative="1" as="geometry">
                        <mxPoint x="140" y="510" as="sourcePoint"/>
                        <mxPoint x="190" y="460" as="targetPoint"/>
                        <Array as="points">
                            <mxPoint x="-50" y="365"/>
                            <mxPoint x="-50" y="488"/>
                        </Array>
                    </mxGeometry>
                </mxCell>
                <mxCell id="290" value="" style="edgeStyle=segmentEdgeStyle;endArrow=classic;html=1;fontSize=11;exitX=0;exitY=0.5;exitDx=0;exitDy=0;entryX=0;entryY=0.5;entryDx=0;entryDy=0;" edge="1" parent="1" source="114" target="201">
                    <mxGeometry width="50" height="50" relative="1" as="geometry">
                        <mxPoint x="140" y="510" as="sourcePoint"/>
                        <mxPoint x="190" y="460" as="targetPoint"/>
                        <Array as="points">
                            <mxPoint x="-60" y="395"/>
                            <mxPoint x="-60" y="543"/>
                        </Array>
                    </mxGeometry>
                </mxCell>
                <mxCell id="291" value="" style="edgeStyle=segmentEdgeStyle;endArrow=classic;html=1;fontSize=11;exitX=1;exitY=0.5;exitDx=0;exitDy=0;entryX=1;entryY=0.5;entryDx=0;entryDy=0;" edge="1" parent="1" source="202" target="113">
                    <mxGeometry width="50" height="50" relative="1" as="geometry">
                        <mxPoint x="140" y="520" as="sourcePoint"/>
                        <mxPoint x="190" y="470" as="targetPoint"/>
                        <Array as="points">
                            <mxPoint x="90" y="573"/>
                            <mxPoint x="90" y="335"/>
                        </Array>
                    </mxGeometry>
                </mxCell>
                <mxCell id="292" value="成功" style="edgeLabel;html=1;align=center;verticalAlign=middle;resizable=0;points=[];fontSize=11;" vertex="1" connectable="0" parent="291">
                    <mxGeometry x="-0.4884" relative="1" as="geometry">
                        <mxPoint as="offset"/>
                    </mxGeometry>
                </mxCell>
                <mxCell id="294" value="" style="edgeStyle=segmentEdgeStyle;endArrow=classic;html=1;fontSize=11;exitX=0;exitY=0.5;exitDx=0;exitDy=0;entryX=0;entryY=0.5;entryDx=0;entryDy=0;" edge="1" parent="1" source="277" target="278">
                    <mxGeometry width="50" height="50" relative="1" as="geometry">
                        <mxPoint x="140" y="520" as="sourcePoint"/>
                        <mxPoint x="190" y="470" as="targetPoint"/>
                        <Array as="points">
                            <mxPoint x="310" y="548"/>
                            <mxPoint x="310" y="615"/>
                        </Array>
                    </mxGeometry>
                </mxCell>
                <mxCell id="295" value="" style="edgeStyle=segmentEdgeStyle;endArrow=classic;html=1;fontSize=11;exitX=1;exitY=0.5;exitDx=0;exitDy=0;entryX=1;entryY=0.5;entryDx=0;entryDy=0;" edge="1" parent="1" source="116" target="180">
                    <mxGeometry width="50" height="50" relative="1" as="geometry">
                        <mxPoint x="140" y="530" as="sourcePoint"/>
                        <mxPoint x="190" y="480" as="targetPoint"/>
                        <Array as="points">
                            <mxPoint x="110" y="210"/>
                            <mxPoint x="110" y="636"/>
                        </Array>
                    </mxGeometry>
                </mxCell>
                <mxCell id="296" value="" style="edgeStyle=segmentEdgeStyle;endArrow=classic;html=1;fontSize=11;exitX=0;exitY=0.5;exitDx=0;exitDy=0;entryX=0;entryY=0.25;entryDx=0;entryDy=0;" edge="1" parent="1" source="181" target="113">
                    <mxGeometry width="50" height="50" relative="1" as="geometry">
                        <mxPoint x="140" y="470" as="sourcePoint"/>
                        <mxPoint x="190" y="420" as="targetPoint"/>
                        <Array as="points">
                            <mxPoint x="-80" y="666"/>
                            <mxPoint x="-80" y="328"/>
                        </Array>
                    </mxGeometry>
                </mxCell>
                <mxCell id="298" value="成功" style="edgeLabel;html=1;align=center;verticalAlign=middle;resizable=0;points=[];fontSize=11;" vertex="1" connectable="0" parent="296">
                    <mxGeometry x="-0.667" y="1" relative="1" as="geometry">
                        <mxPoint as="offset"/>
                    </mxGeometry>
                </mxCell>
                <mxCell id="303" value="" style="group" vertex="1" connectable="0" parent="1">
                    <mxGeometry x="-237" y="320" width="120" height="120" as="geometry"/>
                </mxCell>
                <mxCell id="117" value="「詳細」&lt;br&gt;をクリック" style="rounded=0;whiteSpace=wrap;html=1;fontSize=11;" vertex="1" parent="303">
                    <mxGeometry y="33" width="120" height="27" as="geometry"/>
                </mxCell>
                <mxCell id="131" value="「編集」&lt;br&gt;をクリック" style="rounded=0;whiteSpace=wrap;html=1;fontSize=11;" vertex="1" parent="303">
                    <mxGeometry y="60" width="120" height="30" as="geometry"/>
                </mxCell>
                <mxCell id="132" value="「削除」&lt;br&gt;をクリック" style="rounded=0;whiteSpace=wrap;html=1;fontSize=11;" vertex="1" parent="303">
                    <mxGeometry y="90" width="120" height="30" as="geometry"/>
                </mxCell>
                <mxCell id="272" value="チーム&lt;br&gt;一覧画面" style="rounded=0;whiteSpace=wrap;html=1;fontSize=11;" vertex="1" parent="303">
                    <mxGeometry width="120" height="33" as="geometry"/>
                </mxCell>
                <mxCell id="307" value="" style="edgeStyle=segmentEdgeStyle;endArrow=classic;html=1;fontSize=11;exitX=0;exitY=0.5;exitDx=0;exitDy=0;entryX=0;entryY=0.5;entryDx=0;entryDy=0;" edge="1" parent="303" source="132" target="272">
                    <mxGeometry width="50" height="50" relative="1" as="geometry">
                        <mxPoint x="377" y="180" as="sourcePoint"/>
                        <mxPoint x="427" y="130" as="targetPoint"/>
                        <Array as="points">
                            <mxPoint x="-33" y="105"/>
                            <mxPoint x="-33" y="16"/>
                        </Array>
                    </mxGeometry>
                </mxCell>
                <mxCell id="304" value="" style="edgeStyle=segmentEdgeStyle;endArrow=classic;html=1;fontSize=11;exitX=0;exitY=0.25;exitDx=0;exitDy=0;entryX=0;entryY=0.5;entryDx=0;entryDy=0;" edge="1" parent="1" source="117" target="265">
                    <mxGeometry width="50" height="50" relative="1" as="geometry">
                        <mxPoint x="140" y="500" as="sourcePoint"/>
                        <mxPoint x="190" y="450" as="targetPoint"/>
                        <Array as="points">
                            <mxPoint x="-250" y="360"/>
                            <mxPoint x="-250" y="488"/>
                        </Array>
                    </mxGeometry>
                </mxCell>
                <mxCell id="305" value="" style="edgeStyle=segmentEdgeStyle;endArrow=classic;html=1;fontSize=11;exitX=0;exitY=0.5;exitDx=0;exitDy=0;entryX=0;entryY=0.5;entryDx=0;entryDy=0;" edge="1" parent="1" source="131" target="210">
                    <mxGeometry width="50" height="50" relative="1" as="geometry">
                        <mxPoint x="140" y="500" as="sourcePoint"/>
                        <mxPoint x="190" y="450" as="targetPoint"/>
                        <Array as="points">
                            <mxPoint x="-260" y="395"/>
                            <mxPoint x="-260" y="545"/>
                        </Array>
                    </mxGeometry>
                </mxCell>
                <mxCell id="306" value="" style="edgeStyle=segmentEdgeStyle;endArrow=classic;html=1;fontSize=11;exitX=1;exitY=0.5;exitDx=0;exitDy=0;entryX=1;entryY=0.5;entryDx=0;entryDy=0;" edge="1" parent="1" source="211" target="272">
                    <mxGeometry width="50" height="50" relative="1" as="geometry">
                        <mxPoint x="140" y="500" as="sourcePoint"/>
                        <mxPoint x="190" y="450" as="targetPoint"/>
                        <Array as="points">
                            <mxPoint x="-110" y="575"/>
                            <mxPoint x="-110" y="337"/>
                        </Array>
                    </mxGeometry>
                </mxCell>
                <mxCell id="312" value="成功" style="edgeLabel;html=1;align=center;verticalAlign=middle;resizable=0;points=[];fontSize=11;" vertex="1" connectable="0" parent="306">
                    <mxGeometry x="0.0086" y="1" relative="1" as="geometry">
                        <mxPoint as="offset"/>
                    </mxGeometry>
                </mxCell>
                <mxCell id="309" value="" style="edgeStyle=segmentEdgeStyle;endArrow=classic;html=1;fontSize=11;exitX=0;exitY=0.5;exitDx=0;exitDy=0;entryX=0;entryY=0.5;entryDx=0;entryDy=0;" edge="1" parent="1" source="269" target="207">
                    <mxGeometry width="50" height="50" relative="1" as="geometry">
                        <mxPoint x="190" y="530" as="sourcePoint"/>
                        <mxPoint x="240" y="480" as="targetPoint"/>
                        <Array as="points">
                            <mxPoint x="-280" y="270"/>
                            <mxPoint x="-280" y="635"/>
                        </Array>
                    </mxGeometry>
                </mxCell>
                <mxCell id="310" value="" style="edgeStyle=segmentEdgeStyle;endArrow=classic;html=1;fontSize=11;exitX=1;exitY=0.5;exitDx=0;exitDy=0;entryX=1;entryY=0.75;entryDx=0;entryDy=0;" edge="1" parent="1" source="208" target="272">
                    <mxGeometry width="50" height="50" relative="1" as="geometry">
                        <mxPoint x="190" y="530" as="sourcePoint"/>
                        <mxPoint x="240" y="480" as="targetPoint"/>
                        <Array as="points">
                            <mxPoint x="-100" y="665"/>
                            <mxPoint x="-100" y="345"/>
                        </Array>
                    </mxGeometry>
                </mxCell>
                <mxCell id="311" value="成功" style="edgeLabel;html=1;align=center;verticalAlign=middle;resizable=0;points=[];fontSize=11;" vertex="1" connectable="0" parent="310">
                    <mxGeometry x="-0.6056" y="2" relative="1" as="geometry">
                        <mxPoint as="offset"/>
                    </mxGeometry>
                </mxCell>
                <mxCell id="313" value="" style="edgeStyle=segmentEdgeStyle;endArrow=classic;html=1;fontSize=11;" edge="1" parent="1">
                    <mxGeometry width="50" height="50" relative="1" as="geometry">
                        <mxPoint x="190" y="320" as="sourcePoint"/>
                        <mxPoint x="240" y="270" as="targetPoint"/>
                    </mxGeometry>
                </mxCell>
                <mxCell id="314" value="" style="edgeStyle=segmentEdgeStyle;endArrow=classic;html=1;fontSize=11;exitX=0.5;exitY=1;exitDx=0;exitDy=0;entryX=0.5;entryY=0;entryDx=0;entryDy=0;" edge="1" parent="1" source="26" target="268">
                    <mxGeometry width="50" height="50" relative="1" as="geometry">
                        <mxPoint x="190" y="320" as="sourcePoint"/>
                        <mxPoint x="240" y="270" as="targetPoint"/>
                        <Array as="points">
                            <mxPoint x="90" y="130"/>
                            <mxPoint x="-82" y="130"/>
                        </Array>
                    </mxGeometry>
                </mxCell>
            </root>
        </mxGraphModel>
    </diagram>
</mxfile>